<mxfile host="app.diagrams.net" modified="2022-06-17T11:52:55.188Z" agent="5.0 (Windows NT 10.0; Win64; x64) AppleWebKit/537.36 (KHTML, like Gecko) Chrome/101.0.0.0 Safari/537.36" etag="SjBp6Vy4ip2PyHUQCZdJ" version="20.0.1" type="github">
  <diagram id="SMCxqWlOqeDl80N8QY7_" name="第 1 页">
    <mxGraphModel dx="1038" dy="615" grid="1" gridSize="10" guides="1" tooltips="1" connect="1" arrows="1" fold="1" page="1" pageScale="1" pageWidth="827" pageHeight="1169" math="0" shadow="0">
      <root>
        <mxCell id="0" />
        <mxCell id="1" parent="0" />
        <mxCell id="mjgO2eneLQABkArzDIKy-11" style="edgeStyle=orthogonalEdgeStyle;rounded=0;orthogonalLoop=1;jettySize=auto;html=1;entryX=1.017;entryY=0.438;entryDx=0;entryDy=0;entryPerimeter=0;fontSize=14;strokeWidth=2;" edge="1" parent="1" source="mjgO2eneLQABkArzDIKy-1" target="mjgO2eneLQABkArzDIKy-4">
          <mxGeometry relative="1" as="geometry" />
        </mxCell>
        <mxCell id="mjgO2eneLQABkArzDIKy-1" value="事务发起者&lt;br&gt;（消息提供者）" style="rounded=0;whiteSpace=wrap;html=1;fontSize=14;strokeWidth=2;fillColor=#d5e8d4;strokeColor=#82b366;" vertex="1" parent="1">
          <mxGeometry x="370" y="80" width="120" height="60" as="geometry" />
        </mxCell>
        <mxCell id="mjgO2eneLQABkArzDIKy-19" style="edgeStyle=orthogonalEdgeStyle;rounded=0;orthogonalLoop=1;jettySize=auto;html=1;fontSize=14;strokeWidth=2;entryX=1;entryY=0.5;entryDx=0;entryDy=0;" edge="1" parent="1" source="mjgO2eneLQABkArzDIKy-2" target="mjgO2eneLQABkArzDIKy-20">
          <mxGeometry relative="1" as="geometry">
            <mxPoint x="310" y="570" as="targetPoint" />
          </mxGeometry>
        </mxCell>
        <mxCell id="mjgO2eneLQABkArzDIKy-2" value="事务参与者（消费者）" style="rounded=0;whiteSpace=wrap;html=1;fontSize=14;strokeWidth=2;fillColor=#0050ef;fontColor=#ffffff;strokeColor=#001DBC;" vertex="1" parent="1">
          <mxGeometry x="385" y="540" width="90" height="60" as="geometry" />
        </mxCell>
        <mxCell id="mjgO2eneLQABkArzDIKy-3" value="RabbitMQ" style="rounded=0;whiteSpace=wrap;html=1;fontSize=14;strokeWidth=2;fillColor=#e1d5e7;strokeColor=#9673a6;" vertex="1" parent="1">
          <mxGeometry x="380" y="370" width="100" height="50" as="geometry" />
        </mxCell>
        <mxCell id="mjgO2eneLQABkArzDIKy-4" value="" style="whiteSpace=wrap;html=1;aspect=fixed;strokeWidth=2;fillColor=#ffe6cc;strokeColor=#d79b00;" vertex="1" parent="1">
          <mxGeometry x="100" y="110" width="160" height="160" as="geometry" />
        </mxCell>
        <mxCell id="mjgO2eneLQABkArzDIKy-8" value="本地事务" style="text;html=1;strokeColor=#666666;fillColor=#f5f5f5;align=center;verticalAlign=middle;whiteSpace=wrap;rounded=0;strokeWidth=2;fontSize=14;fontColor=#333333;" vertex="1" parent="1">
          <mxGeometry x="150" y="80" width="60" height="30" as="geometry" />
        </mxCell>
        <mxCell id="mjgO2eneLQABkArzDIKy-9" value="数据库" style="rounded=1;whiteSpace=wrap;html=1;strokeWidth=2;fontSize=14;fillColor=#dae8fc;strokeColor=#6c8ebf;" vertex="1" parent="1">
          <mxGeometry x="135" y="130" width="90" height="40" as="geometry" />
        </mxCell>
        <mxCell id="mjgO2eneLQABkArzDIKy-13" style="edgeStyle=orthogonalEdgeStyle;rounded=0;orthogonalLoop=1;jettySize=auto;html=1;entryX=0;entryY=0.5;entryDx=0;entryDy=0;fontSize=14;strokeWidth=2;" edge="1" parent="1" source="mjgO2eneLQABkArzDIKy-10" target="mjgO2eneLQABkArzDIKy-12">
          <mxGeometry relative="1" as="geometry" />
        </mxCell>
        <mxCell id="mjgO2eneLQABkArzDIKy-10" value="操作日志&lt;br&gt;状态码&lt;br&gt;id= 0，status =0&lt;br&gt;id =1，status = 1" style="rounded=1;whiteSpace=wrap;html=1;strokeWidth=2;fontSize=14;fillColor=#dae8fc;strokeColor=#6c8ebf;" vertex="1" parent="1">
          <mxGeometry x="120" y="190" width="120" height="70" as="geometry" />
        </mxCell>
        <mxCell id="mjgO2eneLQABkArzDIKy-12" value="定时器" style="rounded=0;whiteSpace=wrap;html=1;fontSize=14;strokeWidth=2;fillColor=#f8cecc;strokeColor=#b85450;" vertex="1" parent="1">
          <mxGeometry x="395" y="250" width="70" height="40" as="geometry" />
        </mxCell>
        <mxCell id="mjgO2eneLQABkArzDIKy-15" value="" style="endArrow=classic;html=1;rounded=0;fontSize=14;strokeWidth=2;exitX=0.5;exitY=1;exitDx=0;exitDy=0;entryX=0.5;entryY=0;entryDx=0;entryDy=0;" edge="1" parent="1" source="mjgO2eneLQABkArzDIKy-12" target="mjgO2eneLQABkArzDIKy-3">
          <mxGeometry relative="1" as="geometry">
            <mxPoint x="390" y="330" as="sourcePoint" />
            <mxPoint x="490" y="330" as="targetPoint" />
          </mxGeometry>
        </mxCell>
        <mxCell id="mjgO2eneLQABkArzDIKy-16" value="消息" style="edgeLabel;resizable=0;html=1;align=center;verticalAlign=middle;fontSize=14;strokeWidth=2;" connectable="0" vertex="1" parent="mjgO2eneLQABkArzDIKy-15">
          <mxGeometry relative="1" as="geometry" />
        </mxCell>
        <mxCell id="mjgO2eneLQABkArzDIKy-17" value="" style="endArrow=classic;html=1;rounded=0;fontSize=14;strokeWidth=2;exitX=0.5;exitY=1;exitDx=0;exitDy=0;entryX=0.5;entryY=0;entryDx=0;entryDy=0;" edge="1" parent="1" source="mjgO2eneLQABkArzDIKy-3" target="mjgO2eneLQABkArzDIKy-2">
          <mxGeometry relative="1" as="geometry">
            <mxPoint x="420" y="440" as="sourcePoint" />
            <mxPoint x="420" y="520" as="targetPoint" />
          </mxGeometry>
        </mxCell>
        <mxCell id="mjgO2eneLQABkArzDIKy-18" value="消息" style="edgeLabel;resizable=0;html=1;align=center;verticalAlign=middle;fontSize=14;strokeWidth=2;" connectable="0" vertex="1" parent="mjgO2eneLQABkArzDIKy-17">
          <mxGeometry relative="1" as="geometry" />
        </mxCell>
        <mxCell id="mjgO2eneLQABkArzDIKy-21" style="edgeStyle=orthogonalEdgeStyle;rounded=0;orthogonalLoop=1;jettySize=auto;html=1;entryX=0.5;entryY=1;entryDx=0;entryDy=0;fontSize=14;strokeWidth=2;startArrow=none;" edge="1" parent="1" source="mjgO2eneLQABkArzDIKy-22" target="mjgO2eneLQABkArzDIKy-10">
          <mxGeometry relative="1" as="geometry" />
        </mxCell>
        <mxCell id="mjgO2eneLQABkArzDIKy-20" value="消费消息" style="rhombus;whiteSpace=wrap;html=1;fontSize=14;strokeWidth=2;fillColor=#f0a30a;fontColor=#000000;strokeColor=#BD7000;" vertex="1" parent="1">
          <mxGeometry x="200" y="530" width="110" height="80" as="geometry" />
        </mxCell>
        <mxCell id="mjgO2eneLQABkArzDIKy-22" value="true" style="text;html=1;strokeColor=none;fillColor=none;align=center;verticalAlign=middle;whiteSpace=wrap;rounded=0;fontSize=14;" vertex="1" parent="1">
          <mxGeometry x="225" y="450" width="60" height="30" as="geometry" />
        </mxCell>
        <mxCell id="mjgO2eneLQABkArzDIKy-23" value="" style="edgeStyle=orthogonalEdgeStyle;rounded=0;orthogonalLoop=1;jettySize=auto;html=1;entryX=0.5;entryY=1;entryDx=0;entryDy=0;fontSize=14;strokeWidth=2;endArrow=none;" edge="1" parent="1" source="mjgO2eneLQABkArzDIKy-20" target="mjgO2eneLQABkArzDIKy-22">
          <mxGeometry relative="1" as="geometry">
            <mxPoint x="255" y="530" as="sourcePoint" />
            <mxPoint x="180" y="260" as="targetPoint" />
          </mxGeometry>
        </mxCell>
        <mxCell id="mjgO2eneLQABkArzDIKy-24" value="修改状态码" style="text;html=1;strokeColor=none;fillColor=none;align=center;verticalAlign=middle;whiteSpace=wrap;rounded=0;fontSize=14;" vertex="1" parent="1">
          <mxGeometry x="180" y="320" width="80" height="30" as="geometry" />
        </mxCell>
      </root>
    </mxGraphModel>
  </diagram>
</mxfile>
